<svg width="162" height="226" viewBox="0 0 162 226" fill="none" xmlns="http://www.w3.org/2000/svg">
<g clip-path="url(#clip0_2404_176)">
<path d="M140.022 203.401H137.031C136.531 200.916 136.073 197.951 135.668 194.781H12.0371C11.7902 197.575 11.5872 200.432 11.4641 203.401H11.2606C5.10662 203.401 0.113159 208.41 0.113159 214.592C0.113159 220.775 5.10662 225.784 11.2606 225.784H140.022C146.176 225.784 151.169 220.775 151.169 214.592C151.169 208.41 146.176 203.401 140.022 203.401Z" fill="#CC3366"/>
<path d="M20.4921 94.91C21.3554 96.1379 22.6769 96.9723 24.1575 97.2276C25.6307 97.4829 27.1547 97.1367 28.3811 96.2658L48.6148 81.8825C51.1113 80.105 54.5149 80.3304 56.765 82.4254C62.2732 87.5473 70.0315 89.4494 77.2671 87.4565C82.8336 85.9264 87.4491 82.2362 90.2792 77.3438C91.3389 85.5441 87.3473 98.233 62.919 114.201C40.297 128.988 26.0731 144.355 18.4021 165.182H135.544C136.894 153.229 140.036 139.979 146.568 126.164C160.219 103.876 175.554 63.3432 139.71 25.7831C109.794 -5.56206 83.1822 -1.82029 68.2601 4.59885C61.003 7.7166 57.5555 15.983 60.2844 23.3489L43.5485 7.78593C42.6129 6.91549 41.2121 6.7698 40.109 7.42848C39.0129 8.09185 38.4828 9.4036 38.8099 10.6455L44.3325 31.7169C42.3148 33.3889 40.4641 35.2652 39.0269 37.5238L13.0964 78.2939C11.8627 80.2428 11.9205 82.7459 13.2486 84.6329L20.4921 94.91Z" fill="#CC3366"/>
<path d="M9.19191 187.444H140.021C144.129 187.444 147.453 184.102 147.453 179.983C147.453 175.863 144.129 172.521 140.021 172.521H9.19191C5.08459 172.521 1.76028 175.863 1.76028 179.983C1.76075 184.103 5.08459 187.444 9.19191 187.444Z" fill="#CC3366"/>
</g>
<defs>
<clipPath id="clip0_2404_176">
<rect width="162" height="226" fill="white"/>
</clipPath>
</defs>
</svg>
