<svg width="384" height="96" viewBox="0 0 384 96" fill="none" xmlns="http://www.w3.org/2000/svg">
<g clip-path="url(#clip0_2613_54)">
<path d="M332.474 25.9495C329.381 25.9444 326.366 26.9165 323.857 28.7276C321.215 30.5853 318.813 33.4752 316.652 37.3973C316.369 33.6904 315.411 30.8586 313.778 28.9018C312.145 26.9449 309.891 25.9637 307.018 25.958C304.293 25.9844 301.638 26.8212 299.389 28.3623C296.947 29.9679 294.687 32.4062 292.607 35.677C292.666 34.3375 292.712 33.301 292.743 32.5676C292.772 31.837 292.794 31.2933 292.811 30.9322C292.828 30.5711 292.832 30.3672 292.832 30.3035V30.1591C292.832 28.9442 292.501 28.0564 291.84 27.4957C291.065 26.8954 290.101 26.5939 289.123 26.6462H283.448L282.702 32.8564C281.104 36.8961 278.828 39.9587 275.882 41.951C273.814 43.3527 271.593 44.0324 266.897 44.3212C264.49 44.4614 261.438 44.4996 257.424 44.4784V52.1924C258.136 52.1924 258.827 52.1924 259.497 52.1924C261.883 52.1924 263.968 52.1626 265.816 52.0862C272.699 51.8058 276.302 50.8756 279.972 48.3948C280.312 48.1655 280.629 47.8978 280.96 47.6472L277.781 74.6377H288.725L291.62 49.5757C292.195 47.55 292.929 45.5729 293.815 43.6628C294.543 42.0677 295.454 40.5624 296.528 39.1771C297.392 38.0481 298.456 37.089 299.668 36.3481C300.705 35.7169 301.893 35.3779 303.106 35.3669C304.466 35.3669 305.437 35.7917 306.026 36.6072C306.615 37.4228 306.908 38.7779 306.908 40.6469C306.908 41.1481 306.908 41.6833 306.84 42.261C306.772 42.8387 306.742 43.4504 306.679 44.1088L303.199 74.6249H314.189L317.084 49.1382C317.654 47.1484 318.387 45.2091 319.275 43.34C320.004 41.7888 320.915 40.33 321.988 38.9945C322.852 37.9145 323.901 36.9969 325.086 36.2844C326.101 35.6828 327.256 35.3604 328.434 35.3499C329.791 35.3499 330.771 35.7633 331.376 36.5903C331.981 37.4172 332.281 38.7637 332.279 40.6299C332.279 40.7871 332.279 40.9995 332.279 41.2628C332.279 41.5262 332.215 42.0402 332.143 42.8048C332.071 43.5694 331.952 44.6483 331.804 46.0543C331.656 47.4603 331.439 49.3931 331.168 51.8695C330.897 54.346 330.549 57.4342 330.13 61.1255C329.71 64.8168 329.193 69.311 328.591 74.608H339.611L343.091 44.0918C343.184 43.374 343.243 42.6646 343.273 41.9679C343.303 41.2713 343.32 40.6044 343.32 39.98C343.32 35.4292 342.377 31.9474 340.493 29.5347C338.608 27.1219 335.935 25.9269 332.474 25.9495Z" fill="white"/>
<path d="M379.147 61.4461C378.812 61.2731 378.443 61.1787 378.066 61.17C377.477 61.1604 376.894 61.2976 376.371 61.5693C375.829 61.8501 375.307 62.1695 374.811 62.525C374.283 62.8988 373.709 63.3236 373.09 63.7994C372.44 64.2914 371.743 64.7182 371.009 65.0737C369.069 66.0018 366.941 66.4657 364.791 66.4287C358.612 66.4287 355.522 62.6595 355.522 55.1211V54.5137C361.187 53.9218 365.85 53.119 369.509 52.1052C373.168 51.0914 376.071 49.885 378.219 48.4861C380.355 47.0843 381.84 45.4942 382.673 43.7158C383.528 41.8648 383.96 39.8465 383.941 37.8071C383.924 36.3891 383.616 34.9896 383.038 33.6953C382.401 32.2434 381.469 30.9411 380.3 29.8723C378.964 28.6672 377.414 27.7247 375.731 27.0942C373.683 26.3378 371.512 25.9733 369.331 26.0195C366.939 26.0167 364.563 26.4114 362.299 27.1877C360.147 27.9179 358.119 28.9736 356.285 30.3183C354.437 31.6684 352.782 33.2647 351.364 35.0631C349.906 36.9171 348.676 38.941 347.702 41.0907C346.699 43.3058 345.937 45.623 345.43 48.0018C344.9 50.4425 344.634 52.9334 344.638 55.4312C344.594 58.2179 345.024 60.9916 345.909 63.6337C346.69 65.945 347.929 68.0746 349.55 69.8949C351.128 71.6301 353.063 73.0011 355.221 73.9133C357.554 74.8911 360.063 75.377 362.592 75.3406C364.551 75.3554 366.507 75.1675 368.428 74.7799C370.188 74.4161 371.896 73.8354 373.514 73.051C375.183 72.2305 376.761 71.2337 378.219 70.0776C379.88 68.7485 381.451 67.3111 382.923 65.7746L380.071 62.2234C379.837 61.8869 379.518 61.6186 379.147 61.4461ZM358.273 41.8638C358.976 40.3612 359.891 38.9678 360.99 37.7264C361.976 36.615 363.166 35.7037 364.495 35.0418C365.802 34.3979 367.242 34.0691 368.699 34.0818C369.509 34.0595 370.315 34.1951 371.073 34.4811C371.658 34.7047 372.196 35.0377 372.658 35.4624C373.053 35.8332 373.362 36.2873 373.561 36.7919C373.748 37.2521 373.847 37.7435 373.853 38.2404C373.86 39.1787 373.651 40.106 373.243 40.9505C372.836 41.8001 372.008 42.5944 370.759 43.3335C369.091 44.2471 367.312 44.9382 365.465 45.3894C362.498 46.1492 359.487 46.728 356.45 47.1225C356.87 45.3099 357.481 43.547 358.273 41.8638Z" fill="white"/>
<path d="M167.337 8.388C166.731 8.39069 166.128 8.48082 165.548 8.65561C163.794 9.14902 162.292 10.29 161.343 11.849C160.395 13.4079 160.071 15.269 160.437 17.0577C160.767 18.5777 161.326 20.0385 162.094 21.3905C163.377 23.7308 164.884 25.9402 166.595 27.9873C167.163 28.6839 167.845 28.6882 168.413 27.9873C169.337 26.8489 170.223 25.6765 171.041 24.4616C172.296 22.6843 173.324 20.7564 174.101 18.7229C174.631 17.3992 174.818 15.9627 174.644 14.5473C174.375 12.8084 173.487 11.2261 172.143 10.0935C170.8 8.96093 169.092 8.35499 167.337 8.388Z" fill="white"/>
<path d="M50.1784 58.666C50.0046 58.4706 49.8224 58.2752 49.6401 58.0841C42.8587 51.0413 32.3559 48.8749 24.0105 44.3085C19.4966 41.8491 15.3344 38.4211 13.1389 33.7698C11.7937 30.779 11.3186 27.4682 11.7685 24.2187C12.2184 20.9691 13.575 17.9131 15.682 15.4023C20.6536 9.68058 29.4568 8.20234 36.1535 11.9319C42.0407 15.2112 45.4526 22.0671 44.5752 27.7252C43.4987 34.666 40.5657 38.4636 37.2852 41.4795C36.5773 42.1252 45.6179 47.3202 46.4825 47.6133C47.8939 45.9822 48.8136 43.9602 49.6274 41.9808C52.2595 35.6091 54.4168 29.3988 53.4971 22.6023V0.292969H50.2928C49.005 0.307595 47.749 0.696719 46.6776 1.41308C45.6062 2.12944 44.7654 3.14222 44.2573 4.32837C44.0727 4.75942 43.9308 5.20758 43.8335 5.66642C43.1312 5.13882 42.3934 4.66051 41.6253 4.23491C38.2727 2.39562 34.9244 0.879158 30.953 0.632786C19.1321 -0.106328 9.22689 5.85332 4.27219 16.6724C3.1594 18.9852 2.53189 21.5023 2.42848 24.0678C2.08941 33.413 4.89099 40.5832 11.8632 47.1758C19.3058 54.2101 29.4314 55.6714 38.0311 60.603C42.0618 62.9181 45.6603 66.6009 46.3469 71.2225C47.9363 82.186 35.8992 87.1135 27.024 86.6037C21.0309 86.2639 15.7286 84.4246 12.376 80.3935C10.6352 78.3643 9.49846 75.8856 9.0955 73.2402C8.78813 71.0838 8.98399 68.8853 9.66768 66.8175L2.79298 60.174C1.9453 61.8731 -1.86927 69.91 1.28834 79.0724C5.10291 90.0912 15.8685 93.6296 17.5723 94.1818C32.8306 99.1474 54.8703 91.9347 55.5358 73.3931C55.695 67.9781 53.7778 62.7077 50.1784 58.666Z" fill="white"/>
<path d="M142.61 27.8399V61.4739C141.21 62.9064 139.592 64.1065 137.816 65.0293C136.136 65.883 134.275 66.32 132.391 66.3036C129.769 66.3036 127.801 65.5262 126.487 63.9716C125.173 62.4169 124.517 60.2179 124.52 57.3748V27.8399H116.043L98.4583 27.7847C96.949 26.9762 95.3381 26.3747 93.6689 25.9964C89.3821 25.0533 84.9281 25.1993 80.7121 26.4211C78.5946 27.0493 76.6145 28.0726 74.8758 29.4371C73.2156 30.7383 71.8798 32.4082 70.9736 34.3153C70.0674 36.2223 69.6157 38.3142 69.6541 40.4261C69.5923 43.0471 70.2917 45.6297 71.6673 47.8597C73.0376 50.0148 74.9476 51.7723 77.2069 52.9571C76.2486 53.4268 75.3518 54.0132 74.5367 54.7029C73.8249 55.3073 73.1938 56.0012 72.6591 56.7673C72.1882 57.443 71.8157 58.1825 71.5529 58.9634C71.3201 59.6577 71.1985 60.3846 71.1926 61.1171C71.1267 62.5643 71.4879 63.999 72.231 65.2417C72.9263 66.3068 73.8744 67.1825 74.9902 67.7903C72.8948 68.5031 71.0038 69.716 69.4803 71.3245C68.1446 72.8318 67.4335 74.7933 67.4925 76.8084C67.501 78.4358 67.9397 80.032 68.764 81.4342C69.7118 83.0223 71.0184 84.3653 72.5786 85.3549C74.5642 86.6092 76.7421 87.5276 79.0252 88.0735C82.03 88.8012 85.1147 89.1437 88.2056 89.093C91.4251 89.1426 94.6318 88.6751 97.7038 87.7082C100.241 86.904 102.62 85.6652 104.735 84.0466C106.55 82.6507 108.045 80.8824 109.122 78.8601C110.107 77.0044 110.623 74.9345 110.623 72.8325C110.623 70.618 110.199 68.807 109.351 67.3995C108.521 66.0161 107.354 64.866 105.96 64.0565C104.476 63.2055 102.864 62.5988 101.188 62.2597C99.3826 61.8786 97.555 61.6133 95.716 61.4654C93.8483 61.3125 92.0244 61.236 90.2443 61.236C88.6493 61.2475 87.0552 61.1568 85.4718 60.9641C84.2968 60.8454 83.1503 60.528 82.0811 60.0254C81.6868 59.8455 81.3551 59.5517 81.1285 59.1816C80.902 58.8115 80.7909 58.382 80.8095 57.9482C80.8095 56.8579 81.5329 55.8668 82.9796 54.9748C84.663 55.3086 86.3751 55.4751 88.0911 55.4718C90.5336 55.4941 92.9646 55.1344 95.2964 54.4056C97.3754 53.7661 99.3182 52.7464 101.027 51.3981C102.629 50.1184 103.931 48.5015 104.841 46.6618C105.78 44.7195 106.253 42.5842 106.223 40.4261C106.226 39.4985 106.142 38.5727 105.973 37.6608C105.815 36.8117 105.581 35.9786 105.274 35.1716L113.369 35.2905V57.379C113.341 59.7974 113.684 62.2057 114.386 64.5195C115.003 66.5688 116.025 68.4728 117.391 70.1181C118.726 71.6955 120.406 72.944 122.299 73.767C124.426 74.6563 126.714 75.0904 129.017 75.0413C130.47 75.049 131.919 74.8894 133.336 74.5655C134.63 74.2636 135.888 73.8221 137.087 73.2487C138.251 72.6905 139.351 72.0068 140.368 71.2098C141.411 70.3889 142.402 69.5037 143.335 68.5592L144.106 72.276C144.269 72.8956 144.642 73.4388 145.163 73.8112C145.683 74.1836 146.317 74.3618 146.954 74.3149H153.782V27.8399H142.61ZM81.3775 69.5786C82.7942 69.9133 84.2452 70.0801 85.7007 70.0756H90.0408C91.371 70.0706 92.7002 70.1486 94.0207 70.3093C95.1359 70.4324 96.2354 70.6715 97.3012 71.0229C98.1394 71.2902 98.8992 71.7599 99.5137 72.3907C100.072 73.0101 100.366 73.8247 100.332 74.659C100.334 75.5542 100.098 76.4338 99.6493 77.2077C99.1259 78.0646 98.3861 78.7679 97.5046 79.2466C96.3361 79.8835 95.0767 80.3362 93.7706 80.5889C91.9993 80.9364 90.1968 81.0987 88.3921 81.0731C86.6475 81.1004 84.9045 80.9581 83.1873 80.6484C81.9782 80.4336 80.8109 80.0278 79.7287 79.4463C78.9287 79.0193 78.2571 78.3857 77.7833 77.6112C77.3803 76.916 77.1696 76.1257 77.173 75.3217C77.1599 74.124 77.5681 72.96 78.3258 72.0339C79.1742 71.0245 80.2107 70.1905 81.3775 69.5786ZM95.7881 43.7861C95.4605 44.6924 94.9348 45.5139 94.2495 46.1903C93.5214 46.8854 92.6548 47.4181 91.7065 47.7535C89.3633 48.505 86.8444 48.505 84.5012 47.7535C83.5359 47.4206 82.656 46.8782 81.9243 46.1649C81.2413 45.4783 80.7162 44.6505 80.3857 43.7394C80.0332 42.7662 79.858 41.7375 79.8686 40.7022C79.8686 38.4084 80.5538 36.5889 81.9243 35.2438C83.2947 33.8987 85.3531 33.2261 88.0996 33.2261C90.8404 33.2261 92.8975 33.8987 94.2707 35.2438C95.644 36.5889 96.3306 38.4084 96.3306 40.7022C96.3359 41.7545 96.1521 42.7991 95.7881 43.7861Z" fill="white"/>
<path d="M173.093 27.8398V74.3361H161.907V27.8398C163.051 29.3221 164.101 30.8741 165.052 32.4869C166.277 34.5556 166.748 35.7025 167.532 35.711C168.316 35.7195 168.803 34.5981 170.13 32.368C171.317 30.397 172.372 28.8508 173.093 27.8398Z" fill="white"/>
<path d="M213.845 74.3352C213.207 74.3814 212.573 74.203 212.052 73.8307C211.531 73.4585 211.156 72.9158 210.992 72.2962L210.089 67.8063C209.156 68.8656 208.143 69.8512 207.059 70.7543C206.005 71.6314 204.86 72.3919 203.643 73.0226C202.395 73.6674 201.074 74.1609 199.71 74.4923C198.222 74.8506 196.696 75.0261 195.166 75.0148C192.748 75.0476 190.356 74.5076 188.185 73.4389C186.038 72.349 184.172 70.7742 182.735 68.8385C181.102 66.5963 179.906 64.0657 179.208 61.3794C178.337 58.0674 177.919 54.652 177.967 51.2272C177.939 47.9714 178.41 44.7308 179.365 41.6187C180.217 38.8211 181.582 36.2078 183.392 33.9132C185.094 31.7776 187.238 30.0384 189.677 28.8159C192.247 27.5606 195.076 26.9304 197.934 26.9766C200.212 26.916 202.478 27.3417 204.58 28.2254C206.402 29.0429 208.069 30.1696 209.509 31.5557V13.2902C210.482 11.202 212.082 9.471 214.085 8.33984C216.089 7.20867 218.395 6.73398 220.681 6.98225V74.3352H213.845ZM198.964 66.1327C201.037 66.1979 203.088 65.6957 204.897 64.6799C206.667 63.5902 208.228 62.1935 209.509 60.5553V39.7157C208.414 38.3071 206.995 37.186 205.372 36.4491C203.848 35.8091 202.21 35.4855 200.557 35.4976C198.975 35.4756 197.407 35.8004 195.963 36.4491C194.578 37.0984 193.381 38.0894 192.483 39.3292C191.445 40.8043 190.7 42.4655 190.288 44.2226C189.74 46.516 189.482 48.8693 189.52 51.2272C189.48 53.5481 189.699 55.8662 190.173 58.1383C190.509 59.7833 191.145 61.3517 192.051 62.7642C192.779 63.8866 193.807 64.7815 195.018 65.3468C196.261 65.8905 197.607 66.1613 198.964 66.1412V66.1327Z" fill="white"/>
<path d="M266.172 52.2934H266.206C266.52 52.1564 266.784 51.9248 266.96 51.6307C267.19 51.2255 267.335 50.7773 267.384 50.3139C267.466 49.609 267.502 48.8996 267.495 48.19C267.498 47.0346 267.432 45.88 267.3 44.7323C267.098 42.8543 266.663 41.009 266.003 39.2399C265.095 36.7638 263.677 34.5073 261.841 32.6176C260.042 30.8072 257.873 29.4087 255.483 28.5185C252.906 27.5628 250.177 27.0863 247.43 27.1125C244.223 27.06 241.04 27.6777 238.084 28.9263C235.432 30.0612 233.045 31.7363 231.074 33.8452C229.134 35.9565 227.636 38.4367 226.67 41.1387C225.63 44.0093 225.109 47.0431 225.132 50.0973C225.132 54.1695 225.719 57.756 226.895 60.8569C227.95 63.7654 229.598 66.4216 231.735 68.6558C233.773 70.751 236.242 72.3759 238.97 73.4176C241.838 74.5021 244.882 75.0451 247.947 75.019C249.634 75.0171 251.32 74.8979 252.991 74.6622C254.737 74.4203 256.456 74.0033 258.119 73.4176C259.81 72.8175 261.427 72.0251 262.938 71.0559C264.496 70.0537 265.898 68.8255 267.096 67.4112L263.841 63.3291C263.619 63.0128 263.329 62.7502 262.993 62.5603C262.632 62.3697 262.228 62.2747 261.819 62.2842C261.058 62.3026 260.315 62.5224 259.666 62.9213C258.929 63.3461 258.073 63.8176 257.089 64.3273C255.986 64.8917 254.838 65.362 253.656 65.7334C252.143 66.1815 250.571 66.395 248.994 66.3663C245.321 66.3663 242.365 65.2491 240.127 63.0148C237.889 60.7804 236.609 57.2746 236.287 52.4973H264.901C265.334 52.5113 265.765 52.4421 266.172 52.2934ZM239.987 37.9018C241.822 36.0541 244.37 35.1408 247.616 35.1408C249.107 35.1108 250.587 35.4004 251.957 35.9904C253.141 36.5086 254.192 37.2884 255.034 38.2714C255.859 39.2697 256.474 40.4259 256.839 41.6696C257.159 42.7255 257.349 43.8169 257.403 44.9192C257.403 45.1953 257.428 45.4842 257.428 45.7688H236.457C236.533 45.2718 236.626 44.7833 236.728 44.3245C237.335 41.6144 238.422 39.4735 239.987 37.9018Z" fill="white"/>
<path d="M20.3105 27.3937C20.3105 28.8715 20.7477 30.3161 21.5669 31.5449C22.3861 32.7736 23.5505 33.7313 24.9128 34.2968C26.2751 34.8624 27.7741 35.0103 29.2203 34.722C30.6665 34.4337 31.9949 33.7221 33.0376 32.6771C34.0802 31.6322 34.7903 30.3008 35.078 28.8514C35.3656 27.402 35.218 25.8997 34.6537 24.5344C34.0894 23.1691 33.1339 22.0021 31.9078 21.1811C30.6818 20.3601 29.2404 19.9219 27.7658 19.9219C25.7886 19.9219 23.8923 20.7091 22.4941 22.1103C21.096 23.5116 20.3105 25.4121 20.3105 27.3937Z" fill="white"/>
</g>
<defs>
<clipPath id="clip0_2613_54">
<rect width="384" height="96" fill="white"/>
</clipPath>
</defs>
</svg>
