<svg width="48" height="44" viewBox="0 0 48 44" fill="none" xmlns="http://www.w3.org/2000/svg">
<path d="M0.0113972 0.03125C0.00854008 2.7257 0.00639718 5.42089 0.00354004 8.11534C12.2057 8.11754 24.4071 8.12049 36.6085 8.12343C32.6207 15.106 29.4271 21.2697 25.4393 28.2516C29.3714 28.2332 33.3035 28.2148 37.2357 28.1964C41.0878 21.1984 44.145 15.0177 47.9971 8.01968V0.0687758C32.0021 0.0562675 16.0071 0.0437584 0.0113972 0.03125Z" fill="white"/>
<path d="M47.9892 43.9782C47.9914 41.2838 47.9942 38.5886 47.9964 35.8941C35.76 35.9074 23.5228 35.9206 11.2857 35.9339C15.4314 28.5503 19.5764 23.0672 23.7221 15.6836C19.9407 15.6851 16.1593 15.6865 12.3778 15.6887C8.25282 23.0893 4.12854 28.5893 0.00354004 35.9898V43.9407C15.9985 43.9532 31.9942 43.9657 47.9892 43.9782Z" fill="white"/>
</svg>
