<svg width="300" height="69" viewBox="0 0 300 69" fill="none" xmlns="http://www.w3.org/2000/svg">
<path d="M83.3864 67.3279L84.1288 66.2701C84.7462 66.7327 85.3788 67.0701 86.0265 67.29C86.6742 67.5061 87.4015 67.6198 88.2121 67.6198C89.2386 67.6198 90.0795 67.3431 90.7386 66.7782C91.3977 66.2171 91.7273 65.4437 91.7273 64.4579C91.7273 63.658 91.4659 62.9945 90.9394 62.4827C90.4091 61.9671 89.5568 61.5046 88.3712 61.0951C86.856 60.5757 85.7538 59.9729 85.0606 59.2867C84.3674 58.6005 84.0189 57.721 84.0189 56.6518C84.0189 55.3628 84.4621 54.3278 85.3409 53.5506C86.2235 52.7772 87.3939 52.3867 88.8598 52.3867C89.5113 52.3867 90.1515 52.4739 90.7841 52.6483C91.4167 52.8227 92.0492 53.0995 92.6856 53.4786L92.0038 54.5667C91.4848 54.2558 90.9621 54.0283 90.4356 53.8767C89.9091 53.7288 89.3333 53.6568 88.7121 53.6568C87.7424 53.6568 86.9507 53.9108 86.3409 54.4188C85.7273 54.9268 85.4242 55.6244 85.4242 56.5078C85.4242 57.266 85.697 57.8878 86.2462 58.3844C86.7954 58.8773 87.6932 59.3436 88.9394 59.7796C90.4318 60.2876 91.5038 60.8866 92.1553 61.5842C92.8068 62.2818 93.1326 63.1879 93.1326 64.3025C93.1326 65.6749 92.6894 66.7819 91.803 67.6274C90.9166 68.4766 89.7007 68.8974 88.1477 68.8974C87.2348 68.8974 86.3939 68.7685 85.6212 68.5183C84.8523 68.2681 84.106 67.8662 83.3864 67.3279Z" fill="white"/>
<path d="M116.992 53.9338H112.375V68.6171H110.985V53.9338H106.379V52.6523H116.992V53.9338Z" fill="white"/>
<path d="M142.42 62.4148C142.42 64.5531 141.936 66.1681 140.962 67.26C139.992 68.348 138.564 68.8978 136.682 68.8978C134.799 68.8978 133.443 68.3746 132.481 67.3282C131.519 66.2819 131.042 64.7312 131.042 62.6764V52.6562H132.432V62.5323C132.432 64.2081 132.807 65.4743 133.557 66.3273C134.303 67.1842 135.386 67.6088 136.803 67.6088C138.22 67.6088 139.231 67.1955 139.951 66.3728C140.67 65.5464 141.03 64.3218 141.03 62.6878V52.6562H142.42V62.4186V62.4148Z" fill="white"/>
<path d="M157.974 68.6171V52.6523H162.125C164.845 52.6523 166.902 53.3044 168.292 54.6086C169.682 55.9166 170.379 57.8539 170.379 60.4205C170.379 62.9872 169.617 64.9245 168.102 66.3993C166.587 67.8778 164.527 68.6171 161.924 68.6171H157.974ZM159.371 53.9338V67.3395H161.83C164.083 67.3395 165.822 66.748 167.049 65.5614C168.273 64.3785 168.886 62.6801 168.886 60.4698C168.886 58.2595 168.314 56.6179 167.167 55.545C166.019 54.4721 164.299 53.9376 162.008 53.9376H159.371V53.9338Z" fill="white"/>
<path d="M186.583 68.6171H185.182V52.6523H186.583V68.6171Z" fill="white"/>
<path d="M208.83 68.8934C206.576 68.8934 204.776 68.1428 203.428 66.6452C202.08 65.1477 201.409 63.2028 201.409 60.8106C201.409 58.2591 202.098 56.2156 203.481 54.6802C204.86 53.1485 206.739 52.3789 209.121 52.3789C211.292 52.3789 213.045 53.1182 214.386 54.5968C215.727 56.0753 216.394 58.0127 216.394 60.4087C216.394 63.0322 215.712 65.106 214.337 66.6225C212.962 68.1352 211.129 68.8934 208.83 68.8934ZM208.83 67.6044C210.716 67.6044 212.201 66.9902 213.292 65.7657C214.379 64.5411 214.928 62.8237 214.928 60.6096C214.928 58.3956 214.394 56.7085 213.33 55.4915C212.269 54.2745 210.807 53.6641 208.955 53.6641C207.102 53.6641 205.716 54.3086 204.583 55.5939C203.447 56.8829 202.883 58.5738 202.883 60.6665C202.883 62.7593 203.424 64.4577 204.511 65.7164C205.598 66.9751 207.038 67.6044 208.833 67.6044H208.83Z" fill="white"/>
<path d="M152.333 0.6875C152.333 3.23519 152.329 5.77909 152.326 8.32678C164.193 8.32678 176.057 8.33058 187.924 8.33437C184.045 14.9311 180.939 20.7582 177.061 27.3549C180.886 27.3359 184.708 27.3207 188.534 27.3018C192.28 20.6899 195.254 14.8477 199 8.2358V0.721619C183.443 0.710246 167.89 0.698874 152.333 0.6875Z" fill="white"/>
<path d="M0.121216 0.707031H10.6667V17.4869H33V0.707031H43.5455V42.2132H33V25.4333H10.6667V42.2132H0.121216V0.707031Z" fill="white"/>
<path d="M72.4697 0.707031C87.4773 0.707031 94.8144 7.2355 94.8144 21.0317V21.9454C94.8144 35.7454 87.4811 42.2739 72.4697 42.2739C57.4584 42.2739 49.8372 35.7454 49.8372 21.9454V21.0317C49.8372 7.2355 57.2273 0.707031 72.4697 0.707031ZM72.4697 34.4829C81.0152 34.4829 84.5379 30.76 84.5379 21.7141V21.2554C84.5379 12.2096 81.019 8.4866 72.4697 8.4866C63.9205 8.4866 60.1743 12.2096 60.1743 21.2554V21.7141C60.1743 30.76 63.7538 34.4829 72.4697 34.4829Z" fill="white"/>
<path d="M227.951 0.722656C242.958 0.722656 250.295 7.24732 250.295 21.036V21.9496C250.295 35.7421 242.962 42.2667 227.951 42.2667C212.939 42.2667 205.318 35.7421 205.318 21.9496V21.036C205.318 7.24732 212.708 0.722656 227.951 0.722656ZM227.951 34.4834C236.496 34.4834 240.019 30.7604 240.019 21.7222V21.2634C240.019 12.2252 236.5 8.50221 227.951 8.50221C219.401 8.50221 215.655 12.2252 215.655 21.2634V21.7222C215.655 30.7604 219.235 34.4834 227.951 34.4834Z" fill="white"/>
<path d="M111.617 15.1034V42.2105H101.072V15.1034C101.072 3.99893 105.159 0.101562 120.386 0.101562C123.583 0.101562 126.784 0.279748 129.864 0.69299V8.48773C127.023 8.25267 123.349 8.13135 121.333 8.13135C112.921 8.13135 111.617 9.60992 111.617 15.1034Z" fill="white"/>
<path d="M146.095 0.71875V42.2249H135.549V0.71875H146.095Z" fill="white"/>
<path d="M278.379 0.722656C293.364 0.722656 299.879 6.02277 299.879 18.2001V42.2667H289.277V18.5527C289.277 11.6717 286.019 8.64249 278.379 8.64249C270.739 8.64249 267.178 11.6717 267.178 18.5527V42.2667H256.576V18.2001C256.576 6.02277 263.091 0.722656 278.379 0.722656Z" fill="white"/>
<path d="M198.992 42.2122C198.992 39.6645 198.996 37.1206 199 34.5729C187.098 34.5843 175.201 34.5994 163.299 34.6108C167.329 27.635 171.364 22.4524 175.394 15.4766C171.716 15.4766 168.038 15.4766 164.36 15.4803C160.348 22.4713 156.337 27.6691 152.326 34.6639V42.178C167.883 42.1894 183.436 42.2008 198.992 42.2122Z" fill="white"/>
</svg>
