<svg width="336" height="448" viewBox="0 0 336 448" fill="none" xmlns="http://www.w3.org/2000/svg">
<g opacity="0.2" clip-path="url(#clip0_2585_285)">
<path d="M1.19144 0.998047C1.16169 28.3513 1.13937 55.7119 1.10962 83.0651C128.178 83.0876 255.24 83.1174 382.301 83.1473C340.773 154.033 307.516 216.604 265.988 287.482C306.936 287.295 347.884 287.109 388.832 286.922C428.947 215.88 460.783 153.136 500.898 82.0941V1.379C334.332 1.25202 167.765 1.12503 1.19144 0.998047Z" stroke="white" stroke-width="4" stroke-miterlimit="10"/>
<path d="M500.816 447.121C500.838 419.768 500.868 392.408 500.89 365.054C373.465 365.189 246.031 365.323 118.598 365.458C161.77 290.501 204.934 234.839 248.106 159.883C208.728 159.898 169.35 159.913 129.971 159.935C87.0148 235.063 44.0659 290.897 1.10962 366.025V446.74C167.676 446.867 334.25 446.994 500.816 447.121Z" stroke="white" stroke-width="4" stroke-miterlimit="10"/>
</g>
<defs>
<clipPath id="clip0_2585_285">
<rect width="502" height="448" fill="white"/>
</clipPath>
</defs>
</svg>
