<svg width="432" height="88" viewBox="0 0 432 88" fill="none" xmlns="http://www.w3.org/2000/svg">
<g clip-path="url(#clip0_2613_24)">
<path d="M125.622 61.378V78.9346H114.59V44.8264C114.59 32.8595 124.365 23.1523 136.499 23.1523C148.632 23.1523 158.407 32.865 158.407 44.8264C158.407 56.7879 148.555 66.3484 136.499 66.3484C132.085 66.3484 128.068 64.4037 125.622 61.378ZM125.622 44.8319C125.622 50.7366 130.427 55.4733 136.499 55.4733C142.571 55.4733 147.376 50.7366 147.376 44.8319C147.376 38.9272 142.488 34.0329 136.499 34.0329C130.509 34.0329 125.622 38.8511 125.622 44.8319Z" fill="white"/>
<path d="M162.661 22.9243H173.142V27.7426C175.114 24.0162 181.181 22.6908 186.223 22.9243V33.7994C179.842 32.713 173.693 36.673 173.693 43.2024V64.4907H162.661V22.9243Z" fill="white"/>
<path d="M185.198 43.4363C185.198 32.2516 192.686 21.6807 205.531 21.7622C219.56 21.8382 229.329 32.7187 225.389 48.2545H197.254C197.805 51.9864 202.296 55.5553 207.658 55.5553C210.572 55.6313 215.614 54.3113 217.036 52.372L225.389 58.6624C221.136 63.3992 214.275 65.2679 206.556 65.2679C193.788 65.2679 185.198 54.1592 185.198 43.4363ZM214.595 38.8516C214.986 36.0541 212.705 31.3173 205.927 31.3173C200.098 31.3173 197.177 35.5108 197.177 38.8516H214.595Z" fill="white"/>
<path d="M227.439 44.1324C227.439 31.3887 237.842 22.3008 249.425 22.3008C256.439 22.3008 262.903 25.7176 266.446 30.7694L258.484 38.3852C256.594 34.7348 252.571 33.1813 249.502 33.1813C243.986 33.1813 238.471 37.3749 238.471 44.1378C238.471 50.2761 243.358 55.2465 249.502 55.2465C253.442 55.2465 257.068 52.9921 258.566 49.961L266.446 57.5768C262.98 62.7047 256.439 66.1215 249.425 66.1215C237.286 66.1215 227.439 56.2568 227.439 44.1378V44.1324Z" fill="white"/>
<path d="M268.182 43.9782C268.182 32.3263 276.061 22.5377 287.886 22.6137C300.89 22.6137 310.109 31.6256 307.354 46.151H273.312C273.549 53.9189 280.403 61.0675 289.545 61.0675C293.093 61.1436 300.973 59.0468 303.023 55.63L306.803 58.5036C302.786 63.2404 296.008 65.3426 288.834 65.3426C276.144 65.3426 268.187 54.3861 268.187 43.9782H268.182ZM302.78 41.9574C303.805 35.9767 299.942 26.8073 288.04 26.8073C278.822 26.8073 273.223 34.6567 273.223 41.9574H302.775H302.78Z" fill="white"/>
<path d="M310.82 43.5889C310.82 32.1707 320.275 22.8438 331.863 22.8438C343.451 22.8438 352.907 32.1652 352.907 43.5889V64.2527H348.179V54.388C345.264 60.2926 339.115 64.4102 331.863 64.4102C320.281 64.4102 310.82 55.0887 310.82 43.5889ZM348.173 43.5889C348.173 34.7346 340.845 27.5045 331.858 27.5045C322.87 27.5045 315.547 34.7292 315.547 43.5889C315.547 52.4487 322.876 59.7494 331.858 59.7494C340.839 59.7494 348.173 52.5247 348.173 43.5889Z" fill="white"/>
<path d="M358.891 56.6422C372.606 63.7093 387.654 64.4101 387.731 54.2358C387.731 44.4471 357.469 48.4071 358.257 33.3385C359.045 21.0619 377.725 18.5794 391.748 28.4441L389.775 32.0185C379.372 23.7834 363.613 24.9513 363.139 33.572C362.511 44.2135 392.536 40.5631 392.536 54.0836C392.536 65.2683 379.692 71.4066 357.149 60.7651L358.885 56.6476L358.891 56.6422Z" fill="white"/>
<path d="M396.244 74.7423C404.361 76.5295 409.959 64.9537 408.538 61.9226L392.382 24.1641H397.506L412.009 57.805L426.512 24.1641H431.713L414.455 64.4865C410.593 72.412 406.179 80.7231 396.25 79.327V74.7423H396.244Z" fill="white"/>
<path d="M0.292067 31.7554H27.551L21.0876 57.9381L13.9078 87.0596C6.09983 85.2888 0.28656 78.3846 0.28656 70.1549V31.75L0.292067 31.7554Z" fill="white"/>
<path d="M66.106 40.4016C65.3511 32.4708 58.1933 26.6856 50.187 27.4461C42.1421 28.2066 36.2462 35.2574 37.0286 43.1611C37.8111 51.0811 44.9523 56.8772 52.9696 56.1058C61.0035 55.3616 66.8829 48.3053 66.1004 40.4016H66.106ZM52.2313 48.49C48.4733 48.8648 45.1176 46.1325 44.7539 42.4223C44.3903 38.7177 47.1454 35.4095 50.9198 35.051C54.6778 34.6925 58.0335 37.4085 58.3972 41.1295C58.7609 44.8342 56.0058 48.1424 52.2313 48.49Z" fill="white"/>
<path d="M88.5931 17.8213V70.1595C88.5931 79.7417 80.7135 87.5259 70.9935 87.5259H32.097C33.9098 80.0188 35.7392 72.5225 37.5796 65.0316C39.0839 65.9116 41.2604 66.9926 44.0266 67.7694C44.0266 67.7694 48.3411 68.9645 52.8704 68.7472C68.0566 68.041 79.8264 55.319 79.0935 40.3319C78.3937 25.7032 66.0839 14.3338 51.3662 14.4642C51.0741 14.4642 50.8813 14.4642 50.2421 14.4805C39.9655 14.8119 31.7058 14.7521 25.4792 14.5837H0.617188C2.15453 6.55508 9.31229 0.476562 17.9082 0.476562H70.999C80.719 0.476562 88.5986 8.24447 88.5986 17.8267L88.5931 17.8213Z" fill="white"/>
</g>
<defs>
<clipPath id="clip0_2613_24">
<rect width="432" height="88" fill="white"/>
</clipPath>
</defs>
</svg>
