<svg width="217" height="250" viewBox="0 0 217 250" fill="none" xmlns="http://www.w3.org/2000/svg">
<path d="M66.665 69.4329C90.0923 62.7152 113.992 65.738 134.078 76.0722L136.24 72.1712L134.191 65.0245C134.058 64.5602 134.08 64.1052 134.171 63.6632C134.16 63.478 134.203 63.2624 134.361 62.9779L142.322 48.6149L142.325 48.6141C142.681 47.9676 143.284 47.4628 144.047 47.244C145.575 46.8058 147.164 47.6869 147.603 49.2152L149.188 54.7425L154.715 53.1576C156.243 52.7193 157.833 53.6004 158.271 55.1287C158.49 55.8915 158.378 56.6711 158.021 57.3148L158.022 57.3176L150.139 71.5356L150.135 71.5427L150.056 71.6849C149.898 71.9694 149.741 72.1192 149.578 72.2079C149.254 72.5162 148.877 72.7768 148.415 72.9091L141.268 74.9584L139.106 78.8595C158.514 90.417 173.742 109.083 180.46 132.51C194.465 181.352 166.224 232.3 117.382 246.305C68.5407 260.31 17.5927 232.069 3.58761 183.228C-10.4175 134.386 17.8235 83.438 66.665 69.4329ZM141.303 68.9668L145.683 67.7108L149.62 60.612L145.245 61.8546L143.965 57.5142L140.046 64.5837L141.303 68.9668ZM115.797 240.778C161.585 227.648 188.062 179.883 174.932 134.095C168.653 112.196 154.439 94.729 136.319 83.8878L130.744 93.9444C146.292 103.358 158.473 118.417 163.878 137.265C175.257 176.948 152.31 218.344 112.628 229.723C72.9446 241.102 31.5483 218.156 20.1694 178.473C8.79047 138.79 31.7369 97.3935 71.4198 86.0146C90.2677 80.6101 109.494 82.96 125.716 91.1571L131.29 81.1005C112.492 71.4798 90.1517 68.6799 68.25 74.9601C22.4622 88.0895 -4.01457 135.855 9.11486 181.643C22.2443 227.43 70.0096 253.907 115.797 240.778ZM122.347 109.093C134.035 116.351 143.205 127.751 147.296 142.02C156.05 172.547 138.4 204.388 107.873 213.141C77.3458 221.895 45.5046 204.245 36.7511 173.718C27.9976 143.191 45.6475 111.35 76.1745 102.596C90.4431 98.5049 104.971 100.24 117.319 106.306L122.93 96.1882C107.996 88.6983 90.3271 86.5747 73.0047 91.5419C36.3728 102.046 15.1926 140.256 25.6966 176.888C36.2006 213.52 74.4108 234.7 111.043 224.196C147.675 213.692 168.855 175.482 158.351 138.85C153.384 121.528 142.216 107.667 127.958 98.9754L122.347 109.093ZM113.985 124.178C121.815 129.279 127.936 137.085 130.714 146.775C136.842 168.143 124.486 190.432 103.118 196.56C81.7497 202.687 59.4602 190.332 53.3329 168.963C47.2056 147.595 59.5609 125.305 80.9293 119.178C90.6185 116.4 100.482 117.453 108.957 121.391L114.532 111.334C103.473 105.978 90.4998 104.47 77.7594 108.124C50.2862 116.001 34.4006 144.66 42.2784 172.133C50.1562 199.606 78.8147 215.492 106.288 207.614C133.761 199.736 149.647 171.078 141.769 143.605C138.116 130.864 129.962 120.662 119.56 114.122L113.985 124.178ZM105.59 139.324C109.574 142.234 112.667 146.419 114.133 151.529C117.634 163.739 110.573 176.477 98.3633 179.978C86.1536 183.479 73.4157 176.418 69.9147 164.209C66.4136 151.999 73.4743 139.261 85.684 135.76C90.794 134.295 95.9827 134.7 100.562 136.536L106.168 126.423C98.9865 123.188 90.6752 122.365 82.5142 124.705C64.1996 129.957 53.6085 149.064 58.8601 167.378C64.1118 185.693 83.2186 196.284 101.533 191.032C119.848 185.781 130.439 166.674 125.187 148.359C122.847 140.198 117.745 133.586 111.196 129.21L105.59 139.324ZM94.5378 159.263C93.7671 160.653 92.0205 161.154 90.6301 160.383C89.2396 159.612 88.7388 157.866 89.5095 156.475L97.749 141.611C94.4848 140.459 90.8506 140.26 87.2689 141.287C78.113 143.913 72.8165 153.468 75.4419 162.624C78.0673 171.78 87.6225 177.076 96.7784 174.451C105.934 171.825 111.231 162.27 108.605 153.114C107.579 149.535 105.484 146.556 102.777 144.398L94.5378 159.263Z" fill="#CC3366"/>
<path d="M182.189 0.000823443C184.709 11.6505 186.328 46.8424 146.118 116.435L151.323 150.63L126.993 192.739L121.787 158.544L74.9817 131.541L42.7423 144.134L67.0729 102.026L99.3118 89.4326C139.522 19.8402 168.493 2.29541 182.189 0.000823443ZM78.1092 180.133L81.6393 141.621L109.723 157.822L78.1092 180.133ZM160.562 37.4308L150.681 34.6076L139.705 47.8251L152.452 51.4675L161.63 60.3364L167.351 43.9918L160.562 37.4308Z" fill="#FF4382"/>
<path d="M139.523 47.375L150.646 34.375L160.146 37.375L167.146 43.875L161.646 59.875L161.146 59.375L152.646 51.375L139.523 47.375Z" fill="white"/>
<path d="M139.646 47.375H139.523M139.146 46.875L139.523 47.375M139.523 47.375L150.646 34.375L160.146 37.375L167.146 43.875L161.646 59.875L161.146 59.375L152.646 51.375L139.523 47.375Z" stroke="#FF4382"/>
<rect x="93.7557" y="148.609" width="5.40249" height="5.84343" transform="rotate(-60 93.7557 148.609)" fill="white"/>
</svg>
