<svg width="424" height="96" viewBox="0 0 424 96" fill="none" xmlns="http://www.w3.org/2000/svg">
<path d="M56.7013 93.7826H35.9897L36.1093 90.6583C36.1725 88.9405 36.3755 80.4902 36.5583 71.8787C36.9442 53.6625 37.163 55.3985 34.3764 54.5941C30.6059 53.5103 27.5191 50.8677 26.3819 47.7503C25.5538 45.4849 25.5222 29.2637 26.3435 28.114C27.5281 26.4553 30.3238 26.8325 31.267 28.7775C31.6642 29.5955 31.7025 30.2135 31.7025 35.7895C31.7025 42.5083 31.7386 42.6878 33.0767 42.6833C34.4553 42.6787 34.4102 43.2809 34.4102 25.2738C34.4102 9.323 34.4215 8.87766 34.8637 8.04149C35.8724 6.12376 38.5846 6.18511 39.7444 8.14828C40.2769 9.05034 40.2769 9.05034 40.2769 17.9005C40.2769 27.3574 40.313 27.6618 41.4434 27.6618C42.513 27.6618 42.5333 27.4369 42.5333 15.7101C42.5333 4.69683 42.5333 4.69683 43.1538 3.77205C44.37 1.96111 46.6986 2.0111 47.9825 3.87884C48.6346 4.82634 48.6346 4.82634 48.6301 15.7897C48.6256 27.571 48.6346 27.6618 49.7922 27.6618C50.8256 27.6618 50.882 27.1847 50.882 18.5504C50.882 10.3773 50.882 10.3773 51.5025 9.45252C52.7413 7.6075 55.3858 7.70293 56.4666 9.63202C56.9653 10.525 56.9743 10.6659 56.9743 18.4799C56.9743 26.7484 57.0127 27.1006 57.9446 27.5164C59.0841 28.0231 59.2014 27.3778 59.2759 20.2068C59.3526 12.6063 59.4925 12.1178 61.6744 11.8292C64.3934 11.4679 64.6461 12.1951 64.6461 20.3977C64.6461 27.012 64.6461 27.012 63.4999 28.2594C62.3807 29.4773 62.2791 29.7091 61.6722 32.4107C61.6112 32.6743 61.3969 32.6584 60.3928 32.3244C58.1296 31.5723 55.7355 32.4403 54.5532 34.4443C53.9282 35.5009 53.9282 35.5009 53.7025 50.2701L51.8974 49.818C49.5755 49.234 48.1517 49.7044 46.9671 51.4449C46.0036 52.8604 45.7306 67.6569 46.6084 70.8971C47.635 74.6803 51.1911 78.0954 55.3362 79.2792C57.5023 79.8995 57.3624 79.1201 56.7013 93.7826Z" fill="white"/>
<path d="M79.4662 93.7842H58.7795L58.9013 91.3416C58.9668 89.9988 59.1134 86.7518 59.224 84.1274C59.4812 78.0902 59.655 78.4924 56.2974 77.404C51.8861 75.9748 49.2552 73.4345 48.4993 69.8762C47.8923 67.0269 48.0367 53.5597 48.682 52.6485C49.6433 51.2875 51.8726 51.4533 52.8948 52.9598C53.4747 53.8164 53.4769 53.8323 53.5897 59.7718C53.7116 66.1726 53.7319 66.2907 54.7337 66.2907C55.8349 66.2907 55.8394 66.243 55.9003 50.5104C55.959 35.7525 55.959 35.7525 56.7826 35.0027C57.728 34.1415 59.1518 33.9802 60.2236 34.6096C61.4127 35.3117 61.4872 35.8729 61.4872 44.0233C61.4872 52.0964 61.5616 52.6394 62.6695 52.6735C63.9647 52.7099 63.9692 52.6803 63.9692 41.5307C63.9692 31.8671 63.9918 31.2786 64.4047 30.5128C65.4585 28.561 68.297 28.6042 69.3282 30.5878C69.8314 31.5558 69.8359 31.6308 69.8359 41.6057C69.8359 52.4599 69.8562 52.6372 71.034 52.6735C72.2706 52.7099 72.3179 52.3963 72.3179 44.2141C72.3179 36.6887 72.3179 36.6887 73.0513 35.6821C74.0193 34.3506 75.0888 33.9984 76.4111 34.571C78.1034 35.3072 78.1214 35.3981 78.223 44.046C78.3222 52.3781 78.3651 52.6576 79.5407 52.6576C80.599 52.6576 80.6667 52.235 80.6667 45.7547C80.6667 40.2537 80.7005 39.7402 81.1157 38.9518C82.0792 37.1181 84.5544 37.0045 85.439 38.7518C86.1069 40.0697 86.0798 69.3264 85.4096 71.4645C84.823 73.3368 83.1713 75.325 81.2037 76.5292C79.1075 77.813 79.2429 77.1291 79.4662 93.7842Z" fill="white"/>
<path d="M12.5456 83.8465C12.8638 77.3412 12.9879 77.7184 10.1741 76.6368C6.46009 75.2099 4.09537 72.9377 3.16573 69.8998C2.67383 68.2865 2.65352 53.8354 3.14316 53.0174C3.95773 51.6587 6.23896 51.7995 7.24757 53.2674C7.77783 54.0445 7.7846 54.1149 7.7846 59.8158C7.7846 66.187 7.91998 66.8187 9.18809 66.4324C10.2892 66.0962 10.2667 66.4188 10.2667 51.3019C10.2667 35.0467 10.1764 35.8351 12.0989 35.1785C13.0601 34.849 13.2068 34.8513 13.9739 35.2103C15.5895 35.9601 15.682 36.4532 15.682 44.3854C15.682 51.8791 15.7294 52.204 16.8102 52.204C17.9204 52.204 17.9384 52.0268 17.9384 41.7519C17.9384 30.8954 17.9339 30.9318 19.5247 30.2387C20.7229 29.7184 22.0744 30.0524 22.9003 31.0726C23.4667 31.7747 23.4667 31.7747 23.6359 39.7728C23.8999 52.4153 23.9202 52.5403 25.4907 52.0586C26.2714 51.8177 26.3165 51.8382 27.3612 52.9447C28.7286 54.3944 31.2535 55.8918 33.2143 56.4189C34.0582 56.6461 34.7735 56.8461 34.8029 56.8643C34.8705 56.9029 34.25 83.6965 34.0492 89.2975L33.8958 93.5578H12.0718C12.2388 90.1245 12.4035 86.7504 12.5456 83.8465Z" fill="white"/>
<path d="M175.644 25.072L159.708 70H146.012L130.076 25.072H141.724L152.86 58.992L164.06 25.072H175.644ZM197.474 70.512C193.975 70.512 190.818 69.7653 188.002 68.272C185.229 66.7787 183.031 64.6453 181.41 61.872C179.831 59.0987 179.042 55.856 179.042 52.144C179.042 48.4747 179.853 45.2533 181.474 42.48C183.095 39.664 185.314 37.5093 188.13 36.016C190.946 34.5227 194.103 33.776 197.602 33.776C201.101 33.776 204.258 34.5227 207.074 36.016C209.89 37.5093 212.109 39.664 213.73 42.48C215.351 45.2533 216.162 48.4747 216.162 52.144C216.162 55.8133 215.33 59.056 213.666 61.872C212.045 64.6453 209.805 66.7787 206.946 68.272C204.13 69.7653 200.973 70.512 197.474 70.512ZM197.474 61.04C199.565 61.04 201.335 60.272 202.786 58.736C204.279 57.2 205.026 55.0027 205.026 52.144C205.026 49.2853 204.301 47.088 202.85 45.552C201.442 44.016 199.693 43.248 197.602 43.248C195.469 43.248 193.698 44.016 192.29 45.552C190.882 47.0453 190.178 49.2427 190.178 52.144C190.178 55.0027 190.861 57.2 192.226 58.736C193.634 60.272 195.383 61.04 197.474 61.04ZM242.872 60.72V70H237.304C233.336 70 230.243 69.04 228.024 67.12C225.805 65.1573 224.696 61.9787 224.696 57.584V43.376H220.344V34.288H224.696V25.584H235.64V34.288H242.808V43.376H235.64V57.712C235.64 58.7787 235.896 59.5467 236.408 60.016C236.92 60.4853 237.773 60.72 238.968 60.72H242.872ZM283.632 51.568C283.632 52.592 283.568 53.6587 283.44 54.768H258.672C258.843 56.9867 259.547 58.6933 260.784 59.888C262.064 61.04 263.621 61.616 265.456 61.616C268.187 61.616 270.085 60.464 271.152 58.16H282.8C282.203 60.5067 281.115 62.6187 279.536 64.496C278 66.3733 276.059 67.8453 273.712 68.912C271.365 69.9787 268.741 70.512 265.84 70.512C262.341 70.512 259.227 69.7653 256.496 68.272C253.765 66.7787 251.632 64.6453 250.096 61.872C248.56 59.0987 247.792 55.856 247.792 52.144C247.792 48.432 248.539 45.1893 250.032 42.416C251.568 39.6427 253.701 37.5093 256.432 36.016C259.163 34.5227 262.299 33.776 265.84 33.776C269.296 33.776 272.368 34.5013 275.056 35.952C277.744 37.4027 279.835 39.472 281.328 42.16C282.864 44.848 283.632 47.984 283.632 51.568ZM272.432 48.688C272.432 46.8107 271.792 45.3173 270.512 44.208C269.232 43.0987 267.632 42.544 265.712 42.544C263.877 42.544 262.32 43.0773 261.04 44.144C259.803 45.2107 259.035 46.7253 258.736 48.688H272.432ZM318.374 62.064H301.606L298.918 70H287.462L303.718 25.072H316.39L332.646 70H321.062L318.374 62.064ZM315.558 53.616L309.99 37.168L304.486 53.616H315.558ZM349.537 39.344C350.604 37.68 352.076 36.336 353.953 35.312C355.83 34.288 358.028 33.776 360.545 33.776C363.489 33.776 366.156 34.5227 368.545 36.016C370.934 37.5093 372.812 39.6427 374.177 42.416C375.585 45.1893 376.289 48.4107 376.289 52.08C376.289 55.7493 375.585 58.992 374.177 61.808C372.812 64.5813 370.934 66.736 368.545 68.272C366.156 69.7653 363.489 70.512 360.545 70.512C358.07 70.512 355.873 70 353.953 68.976C352.076 67.952 350.604 66.6293 349.537 65.008V87.024H338.593V34.288H349.537V39.344ZM365.153 52.08C365.153 49.3493 364.385 47.216 362.849 45.68C361.356 44.1013 359.5 43.312 357.281 43.312C355.105 43.312 353.249 44.1013 351.713 45.68C350.22 47.2587 349.473 49.4133 349.473 52.144C349.473 54.8747 350.22 57.0293 351.713 58.608C353.249 60.1867 355.105 60.976 357.281 60.976C359.457 60.976 361.313 60.1867 362.849 58.608C364.385 56.9867 365.153 54.8107 365.153 52.08ZM393.975 39.344C395.041 37.68 396.513 36.336 398.391 35.312C400.268 34.288 402.465 33.776 404.983 33.776C407.927 33.776 410.593 34.5227 412.983 36.016C415.372 37.5093 417.249 39.6427 418.615 42.416C420.023 45.1893 420.727 48.4107 420.727 52.08C420.727 55.7493 420.023 58.992 418.615 61.808C417.249 64.5813 415.372 66.736 412.983 68.272C410.593 69.7653 407.927 70.512 404.983 70.512C402.508 70.512 400.311 70 398.391 68.976C396.513 67.952 395.041 66.6293 393.975 65.008V87.024H383.031V34.288H393.975V39.344ZM409.591 52.08C409.591 49.3493 408.823 47.216 407.287 45.68C405.793 44.1013 403.937 43.312 401.719 43.312C399.543 43.312 397.687 44.1013 396.151 45.68C394.657 47.2587 393.911 49.4133 393.911 52.144C393.911 54.8747 394.657 57.0293 396.151 58.608C397.687 60.1867 399.543 60.976 401.719 60.976C403.895 60.976 405.751 60.1867 407.287 58.608C408.823 56.9867 409.591 54.8107 409.591 52.08Z" fill="white"/>
</svg>
